<svg id="Calque_1" data-name="Calque 1" xmlns="http://www.w3.org/2000/svg" xmlns:xlink="http://www.w3.org/1999/xlink" viewBox="0 0 870.65 180.85"><defs><style>.cls-1{fill:#fff;}.cls-2,.cls-3,.cls-4,.cls-5,.cls-6,.cls-7,.cls-8,.cls-9{fill-rule:evenodd;}.cls-2{fill:url(#Dégradé_sans_nom_2);}.cls-3{fill:url(#Dégradé_sans_nom_2-2);}.cls-4{fill:url(#Dégradé_sans_nom_2-3);}.cls-5{fill:url(#Dégradé_sans_nom_2-4);}.cls-6{fill:url(#Dégradé_sans_nom_2-5);}.cls-7{fill:url(#Dégradé_sans_nom_2-6);}.cls-8{fill:url(#Dégradé_sans_nom_2-7);}.cls-9{fill:url(#Dégradé_sans_nom_2-8);}</style><linearGradient id="Dégradé_sans_nom_2" x1="389.25" y1="210.7" x2="751.06" y2="127.06" gradientUnits="userSpaceOnUse"><stop offset="0" stop-color="#025dbd" stop-opacity="0.88"/><stop offset="0.11" stop-color="#0a89b2" stop-opacity="0.92"/><stop offset="0.23" stop-color="#13bda5" stop-opacity="0.97"/><stop offset="1" stop-color="#1bea9a"/></linearGradient><linearGradient id="Dégradé_sans_nom_2-2" x1="385.64" y1="195.1" x2="747.46" y2="111.46" xlink:href="#Dégradé_sans_nom_2"/><linearGradient id="Dégradé_sans_nom_2-3" x1="399.39" y1="254.59" x2="761.21" y2="170.96" xlink:href="#Dégradé_sans_nom_2"/><linearGradient id="Dégradé_sans_nom_2-4" x1="389.29" y1="210.91" x2="751.11" y2="127.27" xlink:href="#Dégradé_sans_nom_2"/><linearGradient id="Dégradé_sans_nom_2-5" x1="395.74" y1="238.78" x2="757.56" y2="155.15" xlink:href="#Dégradé_sans_nom_2"/><linearGradient id="Dégradé_sans_nom_2-6" x1="367.64" y1="117.25" x2="729.46" y2="33.61" xlink:href="#Dégradé_sans_nom_2"/><linearGradient id="Dégradé_sans_nom_2-7" x1="348.29" y1="33.52" x2="710.11" y2="-50.12" xlink:href="#Dégradé_sans_nom_2"/><linearGradient id="Dégradé_sans_nom_2-8" x1="361.19" y1="89.33" x2="723.01" y2="5.69" xlink:href="#Dégradé_sans_nom_2"/></defs><path class="cls-1" d="M229.34,96a8.34,8.34,0,1,1,0,11.79A8.4,8.4,0,0,1,229.34,96Z"/><polygon class="cls-1" points="228.5 180.13 228.5 120.31 241.98 130.97 241.98 180.13 228.5 180.13"/><path class="cls-1" d="M276.23,180.13H262.75v-32.3c0-9.55,2.53-16.57,7.44-21.2a26.52,26.52,0,0,1,35.95,0c5.06,4.63,7.58,11.79,7.58,21.2v32.3H300.24v-32.3c0-10-4.77-15.31-12.07-15.31s-11.94,5.2-11.94,15.31Z"/><path class="cls-1" d="M97.67,180.13H84.33V144.46c0-17.27,9.69-24.15,22.75-24.15h3.23v12.92h-2.53c-6.74,0-10.11,3.79-10.11,11.23Z"/><path class="cls-1" d="M169.24,142.36l-6.32,29.34c-1.4,6-4.49,9.13-9.13,9.13-3.79,0-6.6-3-8.14-8.85L132,120.31h13.06l8.84,37.35,6.74-29.91c1.27-5.48,4.08-8.14,8.57-8.14s7.3,2.66,8.56,8.14l6.88,29.91,8.85-37.35h13.06L192.83,172c-1.55,5.9-4.21,8.85-8,8.85-5.19,0-7.86-3.09-9.12-9.13Z"/><path class="cls-1" d="M47.29,156.76h0l-.75,2.09c-1.15,2.78-5.25,7.06-11.08,8.61a17.26,17.26,0,0,1-19.15-7.54L60.8,148.08c-1.2-5.64-2.45-17.8-15.53-25.07-7-3.87-14.31-4.63-22.31-2.5A29.47,29.47,0,0,0,4.23,134.79,29.41,29.41,0,0,0,1.1,158a30.2,30.2,0,0,0,37.45,21.71A31.79,31.79,0,0,0,55.78,168a36.16,36.16,0,0,0,3.6-7.2c.64-1.76,1-3,1.3-4.05Zm-34-8.55C13.59,141,18.1,135,26.24,132.86s15.93,1.43,18.56,7Z"/><path class="cls-2" d="M660.62,127.89A31.35,31.35,0,0,0,639,119.61,30.77,30.77,0,0,0,617.09,172a29.75,29.75,0,0,0,21.9,8.85,34.21,34.21,0,0,0,15.17-3.93,22.17,22.17,0,0,0,2.1-1.55v4.78h13.48V150.64C669.74,141,666.66,133.37,660.62,127.89Zm-21.63,40c-9.68,0-17.27-7.44-17.27-17.69s7.59-17.7,17.27-17.7c10,0,17.27,7.59,17.27,17.7S648.68,167.91,639,167.91Z"/><path class="cls-3" d="M563.61,144.46v35.67H577V144.46c0-7.44,3.37-11.23,10.11-11.23h2.52V120.31h-3.23C573.3,120.31,563.61,127.19,563.61,144.46Z"/><path class="cls-4" d="M854.08,143.9c-5.05-1.83-9-3.79-9-6.74s2.52-4.64,7.58-4.64c6.18,0,11.37,1.13,15.44,3.38V123.4l-1.68-1c-2.25-1.27-8-2.81-13.76-2.81-12.22,0-21.06,6.74-21.06,17.55,0,19.23,25.55,15.87,25.55,25.13,0,3.79-2.67,5.62-8.14,5.62a31.72,31.72,0,0,1-16.71-4.49v13.05l2.11,1.13c2.8,1.54,9,3.23,14.6,3.23,13.06,0,21.62-7.16,21.62-18.54C870.79,150.5,861.38,146,854.08,143.9Z"/><path class="cls-5" d="M727.63,133.23,717,120.31H705.46v-16L692.12,93.63v62.48c0,17.28,9.55,24,23.16,24H727l-8.88-12.92h-2.81c-6.59,0-9.82-3.65-9.82-11.1V133.23Z"/><path class="cls-6" d="M793.86,123c-7-3.87-14.31-4.63-22.31-2.5A30.69,30.69,0,0,0,749.69,158a30.2,30.2,0,0,0,37.45,21.71A31.79,31.79,0,0,0,804.37,168a36.16,36.16,0,0,0,3.6-7.2c.64-1.76,1-3,1.3-4.05H795.86l-.75,2.09c-1.15,2.78-5.25,7.06-11.08,8.61a17.26,17.26,0,0,1-19.15-7.54l44.51-11.84C808.19,142.44,806.94,130.28,793.86,123Zm-32,25.2c.27-7.19,4.78-13.18,12.92-15.35s15.93,1.43,18.56,7Z"/><path class="cls-7" d="M503.9,171.69c-33.28-41.65-1.35-78-52.08-109.18-9.63,33.85-54.15,17.44-75.17,62.12A57.31,57.31,0,0,0,372,157.35c-7.92-9.28-5.41-21.6-.36-32,3.35-7,8.13-14.25,12.58-21.1A184.39,184.39,0,0,0,394,88.07c11.87-22.93,10.35-40.45,2.55-51.92a33.23,33.23,0,0,0-15.77-12.34,38.2,38.2,0,0,0-19.43-2.15c-14.33,2-28.19,11.55-33.29,29.15a8.43,8.43,0,0,0,5.74,10.51,8.56,8.56,0,0,0,10.51-5.74,23.49,23.49,0,0,1,19.35-17.2,23.08,23.08,0,0,1,11,1.2,16.17,16.17,0,0,1,7.88,6.13c4.62,6.69,4.94,18.16-3.58,34.64-2.15,4.14-5.42,9.24-9,14.65-4.62,7.17-9.71,14.81-13.62,23-14.41,26.75-4.3,59.64,21.74,59.56h.27a4.58,4.58,0,0,0,.29.48l71.67.16c3.66-23.57-44.43-9.87-44.43-9.87,9.71-10.6,29.7-10.6,29.7-10.6,6.69-33-23.73-34.64-23.73-34.64,26.67-6.92,33.2,21,31.77,27.88,13.46-3.91,18.79-18.64,18.79-18.64-2.54-11.47-.47-16.64-.47-16.64,3.1,22,28.59,65.14,28.59,65.14h22.53C513.86,171.29,503.9,171.69,503.9,171.69Z"/><path class="cls-8" d="M464.8,17c-1-8.2-10.27-15.85-16.4-17l2.23,17.28C455.81,14.65,464.8,17,464.8,17Z"/><path class="cls-9" d="M556.78,98.27S506,96,499.05,72.47l0,.2c2.28-29.45-4.45-67-30.15-72.67l-.31,18.71c-19.91-3.42-26,8-25.49,10.52s-5.73,5.89-6.92,5.89c.31,15.05,11.38,17.84,21.26,19.19,18.54,2.47,36.44,10.26,35.67,46.11h0v.08l0-.07c2,1.23,36.81,20.32,76.42,4C569.52,104.4,568.17,93.25,556.78,98.27ZM450.39,28.43l-1.75.48s1.51-4.62,9.32-4C458,24.93,459.71,31.14,450.39,28.43Z"/></svg>